<svg width="115" height="44" viewBox="0 0 115 44" fill="none" xmlns="http://www.w3.org/2000/svg">
<path d="M0 25.444V0.33H3.225V22.178H12.138V25.442L0 25.444ZM21.01 0.33V25.442H17.785V0.331L21.01 0.33ZM49.004 3.767C51.497 6.278 52.744 9.307 52.744 12.855C52.744 16.401 51.497 19.431 49.004 21.943C46.511 24.453 43.504 25.709 39.982 25.709C36.46 25.709 33.453 24.454 30.959 21.943C28.466 19.431 27.22 16.401 27.22 12.855C27.22 9.307 28.466 6.278 30.96 3.767C33.453 1.255 36.46 0 39.982 0C43.504 0 46.512 1.255 49.004 3.767ZM39.982 3.28C37.353 3.28 35.112 4.214 33.258 6.082C31.404 7.95 30.477 10.207 30.477 12.855C30.477 15.501 31.407 17.762 33.266 19.635C35.126 21.508 37.364 22.445 39.982 22.445C42.61 22.445 44.852 21.508 46.706 19.635C48.56 17.762 49.488 15.501 49.488 12.855C49.488 10.207 48.56 7.95 46.706 6.082C44.852 4.214 42.61 3.28 39.982 3.28ZM58.641 0.331H61.586L71.87 18.254V0.331H75.112V25.443H72.291L61.866 7.299V25.444H58.641V0.331ZM84.919 0.331V25.443H81.693V0.331H84.919ZM110.809 19.463L113.224 21.645C110.274 24.355 107.152 25.71 103.859 25.71C100.337 25.71 97.335 24.46 94.852 21.96C92.369 19.458 91.128 16.434 91.128 12.887C91.128 9.351 92.369 6.327 94.852 3.815C97.335 1.304 100.337 0.048 103.859 0.048C107.152 0.048 110.274 1.404 113.224 4.113L110.809 6.327C108.586 4.338 106.269 3.344 103.859 3.344C101.251 3.344 99.02 4.276 97.166 6.138C95.311 8 94.384 10.25 94.384 12.887C94.384 15.534 95.311 17.789 97.166 19.652C99.02 21.514 101.251 22.445 103.859 22.445C106.269 22.445 108.586 21.452 110.809 19.463ZM52.978 40.868H56.323V41.541H52.248V34.314H52.978V40.868ZM57.538 39.336C57.559 39.574 57.616 39.799 57.711 40.01C57.8907 40.4164 58.2166 40.7405 58.624 40.918C58.827 41.008 59.046 41.051 59.283 41.051C59.641 41.051 59.95 40.968 60.21 40.801C60.47 40.634 60.668 40.442 60.803 40.224L61.32 40.654C61.036 41.014 60.724 41.272 60.382 41.429C60.0367 41.5862 59.6614 41.6664 59.282 41.664C58.932 41.664 58.605 41.601 58.304 41.475C58.004 41.349 57.745 41.175 57.529 40.95C57.3093 40.7192 57.1355 40.4488 57.017 40.153C56.8897 39.8348 56.8258 39.4947 56.829 39.152C56.829 38.792 56.89 38.458 57.012 38.152C57.134 37.846 57.302 37.58 57.519 37.356C57.735 37.131 57.989 36.956 58.279 36.829C58.569 36.704 58.883 36.641 59.222 36.641C59.58 36.641 59.901 36.706 60.184 36.835C60.468 36.965 60.706 37.136 60.899 37.351C61.092 37.565 61.239 37.817 61.34 38.106C61.442 38.396 61.493 38.703 61.493 39.03V39.336H57.538ZM60.763 38.785C60.763 38.329 60.627 37.96 60.357 37.677C60.087 37.394 59.708 37.253 59.222 37.253C59.006 37.253 58.796 37.296 58.593 37.38C58.39 37.466 58.213 37.58 58.061 37.723C57.9109 37.8631 57.7873 38.0291 57.696 38.213C57.6061 38.3903 57.5592 38.5862 57.559 38.785H60.763ZM63.073 42.501C63.269 42.766 63.524 42.979 63.839 43.139C64.153 43.299 64.503 43.379 64.888 43.379C65.225 43.379 65.513 43.329 65.749 43.231C65.9691 43.1438 66.1655 43.0057 66.322 42.828C66.468 42.658 66.572 42.458 66.637 42.231C66.7 42.003 66.732 41.759 66.732 41.501V40.643H66.712C66.496 40.97 66.232 41.201 65.922 41.337C65.6119 41.473 65.2766 41.5425 64.938 41.541C64.594 41.541 64.271 41.48 63.971 41.358C63.6789 41.2415 63.412 41.0697 63.185 40.852C62.962 40.637 62.786 40.382 62.658 40.082C62.5279 39.7753 62.4622 39.4451 62.465 39.112C62.465 38.765 62.526 38.441 62.648 38.142C62.77 37.842 62.936 37.58 63.15 37.355C63.363 37.131 63.616 36.956 63.91 36.829C64.203 36.704 64.527 36.641 64.878 36.641C65.02 36.641 65.17 36.654 65.328 36.681C65.6744 36.7412 66.0002 36.8869 66.276 37.105C66.432 37.225 66.577 37.375 66.713 37.56H66.733V36.763H67.401V41.501C67.401 41.759 67.369 42.035 67.306 42.327C67.241 42.62 67.116 42.889 66.93 43.134C66.7233 43.3963 66.4578 43.6062 66.155 43.747C65.823 43.91 65.391 43.992 64.857 43.992C64.385 43.992 63.962 43.914 63.59 43.756C63.2044 43.5899 62.859 43.343 62.577 43.032L63.073 42.501ZM63.195 39.091C63.1944 39.5713 63.3776 40.0335 63.707 40.383C63.866 40.549 64.051 40.683 64.264 40.78C64.477 40.88 64.709 40.928 64.959 40.928C65.4339 40.9309 65.8915 40.7499 66.236 40.423C66.405 40.263 66.536 40.071 66.626 39.846C66.718 39.622 66.76 39.37 66.753 39.091C66.753 38.839 66.713 38.603 66.631 38.381C66.553 38.1651 66.4323 37.9671 66.276 37.799C66.1161 37.6291 65.9231 37.4937 65.709 37.401C65.4722 37.2995 65.2166 37.249 64.959 37.253C64.709 37.253 64.477 37.303 64.264 37.401C63.9417 37.5494 63.6692 37.788 63.4796 38.0879C63.2899 38.3878 63.191 38.7362 63.195 39.091ZM71.943 38.611V38.489C71.943 37.665 71.538 37.253 70.727 37.253C70.172 37.253 69.689 37.44 69.277 37.815L68.872 37.335C69.318 36.872 69.987 36.641 70.878 36.641C71.108 36.641 71.33 36.675 71.543 36.743C71.755 36.81 71.939 36.915 72.095 37.055C72.25 37.195 72.375 37.369 72.47 37.58C72.565 37.79 72.612 38.044 72.612 38.336V40.469C72.612 40.653 72.621 40.845 72.637 41.046C72.654 41.247 72.673 41.412 72.693 41.541H72.044C72.0229 41.4161 72.0079 41.2903 71.999 41.164C71.9892 41.0312 71.9842 40.8981 71.984 40.765H71.964C71.767 41.086 71.536 41.315 71.269 41.455C71.002 41.595 70.675 41.665 70.29 41.665C70.08 41.665 69.879 41.635 69.682 41.577C69.4927 41.5227 69.3156 41.4327 69.16 41.312C69 41.1892 68.8711 41.0304 68.7839 40.8485C68.6967 40.6666 68.6535 40.4667 68.658 40.265C68.658 39.877 68.758 39.572 68.958 39.351C69.163 39.1262 69.4207 38.9561 69.708 38.856C70.008 38.748 70.329 38.68 70.671 38.652C71.012 38.625 71.325 38.612 71.608 38.612L71.943 38.611ZM71.599 39.162C71.429 39.162 71.219 39.172 70.965 39.188C70.7181 39.204 70.4735 39.2452 70.235 39.311C70.0167 39.3681 69.8129 39.4707 69.637 39.612C69.5549 39.68 69.4897 39.7662 69.4467 39.8637C69.4036 39.9613 69.3839 40.0675 69.389 40.174C69.389 40.33 69.421 40.464 69.485 40.577C69.549 40.689 69.635 40.78 69.743 40.852C69.851 40.923 69.971 40.975 70.103 41.006C70.235 41.036 70.369 41.051 70.503 41.051C70.746 41.051 70.958 41.011 71.137 40.928C71.316 40.847 71.467 40.737 71.587 40.598C71.7107 40.4557 71.8028 40.2886 71.857 40.108C71.914 39.92 71.943 39.72 71.943 39.509V39.162H71.599ZM74.984 41.542H74.315V33.822H74.984V41.542ZM83.052 35.508C82.735 35.038 82.272 34.803 81.663 34.803C81.4747 34.8027 81.2872 34.8286 81.106 34.88C80.9298 34.9285 80.7636 35.0077 80.615 35.114C80.459 35.2276 80.3334 35.3779 80.2493 35.5517C80.1652 35.7254 80.1253 35.9172 80.133 36.11C80.133 36.436 80.225 36.691 80.407 36.87C80.589 37.051 80.815 37.2 81.086 37.315C81.356 37.43 81.652 37.535 81.973 37.626C82.293 37.718 82.59 37.841 82.859 37.994C83.13 38.147 83.357 38.349 83.539 38.601C83.721 38.853 83.812 39.197 83.812 39.632C83.812 39.959 83.742 40.254 83.605 40.515C83.4711 40.7713 83.2843 40.9962 83.057 41.175C82.831 41.351 82.577 41.487 82.297 41.582C82.0248 41.676 81.739 41.7243 81.451 41.725C81.011 41.725 80.594 41.642 80.199 41.475C79.7929 41.2999 79.4436 41.0153 79.19 40.653L79.86 40.173C80.014 40.439 80.23 40.651 80.506 40.812C80.782 40.972 81.109 41.052 81.486 41.052C81.668 41.052 81.85 41.022 82.032 40.965C82.214 40.907 82.377 40.822 82.522 40.709C82.666 40.598 82.786 40.459 82.881 40.296C82.975 40.132 83.021 39.946 83.021 39.734C83.021 39.483 82.969 39.274 82.865 39.107C82.7593 38.9384 82.6176 38.7953 82.45 38.688C82.2662 38.5703 82.0683 38.4762 81.861 38.408C81.6352 38.331 81.4089 38.2556 81.182 38.182C80.9512 38.1084 80.7243 38.0233 80.502 37.927C80.2895 37.8361 80.0917 37.7141 79.915 37.565C79.7387 37.4129 79.5972 37.2246 79.5 37.013C79.395 36.793 79.342 36.515 79.342 36.181C79.342 35.834 79.408 35.531 79.54 35.273C79.6656 35.0219 79.8457 34.8018 80.067 34.629C80.287 34.459 80.535 34.333 80.812 34.251C81.089 34.17 81.373 34.129 81.663 34.129C82.069 34.129 82.437 34.194 82.769 34.323C83.099 34.453 83.407 34.68 83.691 35.008L83.052 35.508ZM89.844 39.152C89.844 39.513 89.781 39.846 89.656 40.152C89.5372 40.45 89.3601 40.7213 89.135 40.95C88.9076 41.1767 88.6369 41.3552 88.339 41.475C88.031 41.601 87.691 41.665 87.319 41.665C86.955 41.665 86.619 41.601 86.311 41.475C86.0133 41.3554 85.7429 41.1769 85.516 40.95C85.2905 40.7219 85.113 40.4509 84.994 40.153C84.8664 39.8349 84.8025 39.4948 84.806 39.152C84.806 38.792 84.868 38.458 84.994 38.152C85.118 37.846 85.292 37.58 85.516 37.355C85.738 37.131 86.003 36.956 86.311 36.829C86.6319 36.7012 86.9746 36.6373 87.32 36.641C87.691 36.641 88.03 36.704 88.339 36.829C88.646 36.956 88.911 37.131 89.135 37.355C89.357 37.58 89.531 37.845 89.655 38.151C89.781 38.458 89.844 38.791 89.844 39.151V39.152ZM89.114 39.152C89.1162 38.8981 89.0732 38.6458 88.987 38.407C88.8692 38.0616 88.6437 37.763 88.3437 37.5553C88.0436 37.3476 87.6848 37.2416 87.32 37.253C87.043 37.253 86.794 37.303 86.575 37.401C86.355 37.501 86.169 37.635 86.017 37.804C85.865 37.975 85.747 38.176 85.662 38.407C85.578 38.638 85.535 38.887 85.535 39.152C85.535 39.418 85.578 39.666 85.662 39.898C85.747 40.129 85.865 40.33 86.017 40.499C86.169 40.671 86.355 40.805 86.575 40.903C86.795 41.002 87.043 41.051 87.32 41.051C87.597 41.051 87.845 41.002 88.065 40.903C88.285 40.805 88.472 40.671 88.627 40.499C88.783 40.33 88.903 40.129 88.987 39.898C89.072 39.666 89.114 39.418 89.114 39.152ZM91.881 41.542H91.211V33.822H91.881V41.542ZM96.918 41.542C96.9052 41.4143 96.8971 41.2863 96.894 41.158C96.8899 41.0304 96.8879 40.9027 96.888 40.775H96.868C96.794 40.905 96.699 41.025 96.584 41.133C96.469 41.243 96.341 41.335 96.199 41.413C96.057 41.492 95.906 41.553 95.748 41.598C95.588 41.642 95.432 41.664 95.277 41.664C94.668 41.664 94.218 41.502 93.928 41.179C93.638 40.856 93.493 40.395 93.493 39.796V36.763H94.162V39.408C94.162 39.674 94.182 39.908 94.222 40.112C94.263 40.317 94.332 40.488 94.431 40.627C94.528 40.767 94.66 40.873 94.826 40.944C94.991 41.015 95.198 41.051 95.449 41.051C95.482 41.051 95.577 41.038 95.733 41.011C95.9118 40.9731 96.0798 40.8959 96.225 40.785C96.396 40.663 96.55 40.48 96.685 40.235C96.82 39.989 96.888 39.649 96.888 39.213V36.763H97.557V40.49C97.5645 40.8411 97.5815 41.1919 97.608 41.542H96.918ZM101.582 37.375H100.213V40.194C100.213 40.371 100.23 40.515 100.264 40.627C100.298 40.741 100.345 40.827 100.406 40.888C100.466 40.9489 100.541 40.9927 100.624 41.015C100.708 41.04 100.801 41.051 100.903 41.051C101.017 41.051 101.136 41.034 101.258 41C101.378 40.966 101.491 40.922 101.592 40.868L101.622 41.49C101.212 41.6671 100.756 41.7102 100.32 41.613C100.18 41.5785 100.05 41.5117 99.94 41.418C99.8171 41.3123 99.72 41.1799 99.656 41.031C99.581 40.868 99.544 40.653 99.544 40.388V37.375H98.541V36.763H99.544V35.415H100.214V36.763H101.582V37.375ZM103.467 34.926C103.467 35.069 103.417 35.186 103.315 35.278C103.225 35.3647 103.106 35.4137 102.981 35.415C102.856 35.414 102.736 35.3649 102.646 35.278C102.596 35.234 102.557 35.1797 102.531 35.1189C102.504 35.0581 102.491 34.9923 102.493 34.926C102.493 34.783 102.544 34.666 102.646 34.574C102.736 34.4866 102.856 34.4372 102.981 34.436C103.102 34.436 103.213 34.482 103.315 34.574C103.416 34.665 103.467 34.783 103.467 34.926ZM103.315 41.541H102.645V36.764H103.315V41.541ZM109.721 39.151C109.721 39.513 109.658 39.846 109.534 40.153C109.408 40.459 109.234 40.724 109.012 40.95C108.785 41.1767 108.514 41.3552 108.216 41.475C107.892 41.6047 107.545 41.6692 107.196 41.665C106.832 41.665 106.496 41.601 106.189 41.475C105.891 41.3554 105.62 41.1769 105.393 40.95C105.168 40.7214 104.991 40.4505 104.871 40.153C104.743 39.8349 104.68 39.4948 104.683 39.152C104.683 38.792 104.745 38.458 104.871 38.152C104.996 37.846 105.17 37.58 105.393 37.355C105.615 37.131 105.881 36.956 106.189 36.829C106.51 36.7011 106.852 36.6373 107.197 36.641C107.569 36.641 107.907 36.704 108.216 36.829C108.523 36.956 108.788 37.131 109.012 37.355C109.234 37.58 109.408 37.845 109.534 38.151C109.658 38.458 109.721 38.791 109.721 39.151ZM108.991 39.151C108.993 38.8975 108.95 38.6457 108.865 38.407C108.786 38.1844 108.663 37.9795 108.505 37.804C108.347 37.6324 108.155 37.4952 107.942 37.401C107.707 37.2991 107.453 37.2487 107.197 37.253C106.92 37.253 106.671 37.303 106.452 37.401C106.232 37.501 106.047 37.635 105.894 37.804C105.739 37.9807 105.619 38.1853 105.54 38.407C105.455 38.638 105.413 38.887 105.413 39.152C105.413 39.418 105.455 39.666 105.54 39.898C105.624 40.129 105.743 40.33 105.894 40.499C106.047 40.671 106.232 40.805 106.452 40.903C106.672 41.002 106.92 41.051 107.197 41.051C107.474 41.051 107.722 41.002 107.942 40.903C108.162 40.805 108.349 40.671 108.504 40.499C108.66 40.33 108.78 40.129 108.864 39.898C108.949 39.666 108.991 39.418 108.991 39.152V39.151ZM111.575 36.763C111.589 36.893 111.597 37.02 111.601 37.146C111.604 37.272 111.606 37.4 111.606 37.529H111.626C111.7 37.4 111.795 37.281 111.91 37.171C112.148 36.952 112.435 36.7929 112.747 36.707C112.905 36.663 113.062 36.641 113.217 36.641C113.826 36.641 114.275 36.802 114.566 37.126C114.856 37.449 115.001 37.91 115.001 38.509V41.541H114.332V38.897C114.332 38.366 114.242 37.96 114.058 37.677C113.876 37.394 113.538 37.253 113.045 37.253C112.95 37.2617 112.856 37.2754 112.762 37.294C112.583 37.3313 112.415 37.4078 112.27 37.518C112.077 37.665 111.919 37.8537 111.809 38.07C111.674 38.315 111.606 38.655 111.606 39.091V41.541H110.937V37.815C110.929 37.4639 110.912 37.1131 110.886 36.763H111.575ZM42.983 38.73H0.001V37.384H42.984L42.983 38.73Z" fill="#3172B9"/>
</svg>
